<svg width="12" height="20" viewBox="0 0 12 20" fill="none" xmlns="http://www.w3.org/2000/svg">
    <path d="M0.289062 10.2441C0.296224 10.0221 0.339193 9.81803 0.417969 9.63184C0.503906 9.44564 0.632812 9.2666 0.804688 9.09473L9.07617 1.00586C9.34831 0.733724 9.68132 0.597656 10.0752 0.597656C10.3473 0.597656 10.5908 0.662109 10.8057 0.791016C11.0277 0.919922 11.2031 1.09538 11.332 1.31738C11.4681 1.53223 11.5361 1.77214 11.5361 2.03711C11.5361 2.43815 11.3857 2.78906 11.085 3.08984L3.72656 10.2441L11.085 17.3984C11.3857 17.7064 11.5361 18.0573 11.5361 18.4512C11.5361 18.7233 11.4681 18.9668 11.332 19.1816C11.2031 19.3965 11.0277 19.5684 10.8057 19.6973C10.5908 19.8262 10.3473 19.8906 10.0752 19.8906C9.68132 19.8906 9.34831 19.7546 9.07617 19.4824L0.804688 11.3936C0.625651 11.2217 0.493164 11.0426 0.407227 10.8564C0.328451 10.6631 0.289062 10.459 0.289062 10.2441Z" fill="#E4AF0A"/>
</svg>